<?xml version="1.0" standalone="no"?>
<!DOCTYPE svg PUBLIC "-//W3C//DTD SVG 20010904//EN"
 "http://www.w3.org/TR/2001/REC-SVG-20010904/DTD/svg10.dtd">
<svg version="1.0" xmlns="http://www.w3.org/2000/svg"
 width="16.000000pt" height="16.000000pt" viewBox="0 0 16.000000 16.000000"
 preserveAspectRatio="xMidYMid meet">
<metadata>
Created by potrace 1.16, written by Peter Selinger 2001-2019
</metadata>
<g transform="translate(0.000000,16.000000) scale(0.100000,-0.100000)"
fill="#000000" stroke="none">
<path d="M33 152 c-18 -3 -23 -12 -28 -57 -4 -29 -4 -63 0 -74 6 -20 12 -22
78 -19 l72 3 -1 67 c0 37 -2 70 -5 72 -6 6 -91 12 -116 8z m87 -43 c0 -12 -8
-23 -20 -26 -11 -3 -20 -10 -20 -15 0 -5 9 -12 20 -15 11 -3 20 -10 20 -15 0
-6 -10 -7 -22 -3 -13 3 -33 9 -45 12 -24 6 -30 18 -13 28 6 3 10 15 10 26 0
10 5 19 11 19 5 0 7 -6 3 -12 -4 -7 2 -5 12 5 25 23 44 22 44 -4z"/>
</g>
</svg>
